<?xml version="1.0" encoding="UTF-8"?>
<svg fill="none" viewBox="0 0 171 78" xmlns="http://www.w3.org/2000/svg">
<path d="m50 34.517-50 22.017v-14.382l34.233-13.743-0.4617 0.7457v-1.7756l0.4617 0.7458-34.233-13.743v-14.382l50 22.017v12.5zm56.676 22.834v11.47h-47.763v-11.47h47.763zm10.591 20.455v-75h14.915v9.1619h0.675c0.663-1.4678 1.622-2.9593 2.876-4.4744 1.279-1.5388 2.936-2.8172 4.972-3.8352 2.06-1.0417 4.616-1.5625 7.67-1.5625 3.978 0 7.647 1.0417 11.009 3.125 3.362 2.0597 6.049 5.1728 8.061 9.3394 2.012 4.143 3.018 9.3395 3.018 15.59 0 6.0843-0.982 11.222-2.947 15.412-1.941 4.1666-4.593 7.3271-7.955 9.4815-3.338 2.1307-7.078 3.196-11.221 3.196-2.936 0-5.433-0.4853-7.493-1.456-2.036-0.9706-3.705-2.1898-5.007-3.6576-1.302-1.4915-2.297-2.9948-2.983-4.51h-0.462v29.19h-15.128zm14.809-47.727c0 3.2434 0.449 6.0724 1.349 8.4872s2.202 4.2969 3.906 5.6463c1.705 1.3258 3.776 1.9887 6.215 1.9887 2.462 0 4.545-0.6748 6.25-2.0242 1.704-1.3731 2.995-3.267 3.871-5.6818 0.899-2.4385 1.349-5.2438 1.349-8.4162 0-3.1487-0.438-5.9186-1.314-8.3097s-2.166-4.2613-3.871-5.6108c-1.704-1.3494-3.799-2.0241-6.285-2.0241-2.462 0-4.546 0.651-6.25 1.9531-1.681 1.3021-2.971 3.1487-3.871 5.5398s-1.349 5.2083-1.349 8.4517z" fill="#000"/>
</svg>
